<svg id="visual" viewBox="0 0 960 540" width="960" height="540" xmlns="http://www.w3.org/2000/svg" xmlns:xlink="http://www.w3.org/1999/xlink" version="1.1"><rect x="0" y="0" width="960" height="540" fill="#faf5ff"></rect><path d="M508 540L502.3 528.8C496.7 517.7 485.3 495.3 493.5 472.8C501.7 450.3 529.3 427.7 526.5 405.2C523.7 382.7 490.3 360.3 492.5 337.8C494.7 315.3 532.3 292.7 524.3 270.2C516.3 247.7 462.7 225.3 451.5 202.8C440.3 180.3 471.7 157.7 482.8 135.2C494 112.7 485 90.3 500.3 67.8C515.7 45.3 555.3 22.7 575.2 11.3L595 0L960 0L960 11.3C960 22.7 960 45.3 960 67.8C960 90.3 960 112.7 960 135.2C960 157.7 960 180.3 960 202.8C960 225.3 960 247.7 960 270.2C960 292.7 960 315.3 960 337.8C960 360.3 960 382.7 960 405.2C960 427.7 960 450.3 960 472.8C960 495.3 960 517.7 960 528.8L960 540Z" fill="#fa7268"></path><path d="M657 540L632 528.8C607 517.7 557 495.3 558.8 472.8C560.7 450.3 614.3 427.7 626 405.2C637.7 382.7 607.3 360.3 601.2 337.8C595 315.3 613 292.7 626.3 270.2C639.7 247.7 648.3 225.3 627.7 202.8C607 180.3 557 157.7 542.8 135.2C528.7 112.7 550.3 90.3 562.3 67.8C574.3 45.3 576.7 22.7 577.8 11.3L579 0L960 0L960 11.3C960 22.7 960 45.3 960 67.8C960 90.3 960 112.7 960 135.2C960 157.7 960 180.3 960 202.8C960 225.3 960 247.7 960 270.2C960 292.7 960 315.3 960 337.8C960 360.3 960 382.7 960 405.2C960 427.7 960 450.3 960 472.8C960 495.3 960 517.7 960 528.8L960 540Z" fill="#ea5a75"></path><path d="M599 540L615.5 528.8C632 517.7 665 495.3 670 472.8C675 450.3 652 427.7 648.7 405.2C645.3 382.7 661.7 360.3 656.3 337.8C651 315.3 624 292.7 614.5 270.2C605 247.7 613 225.3 629.2 202.8C645.3 180.3 669.7 157.7 679.2 135.2C688.7 112.7 683.3 90.3 687.3 67.8C691.3 45.3 704.7 22.7 711.3 11.3L718 0L960 0L960 11.3C960 22.7 960 45.3 960 67.8C960 90.3 960 112.7 960 135.2C960 157.7 960 180.3 960 202.8C960 225.3 960 247.7 960 270.2C960 292.7 960 315.3 960 337.8C960 360.3 960 382.7 960 405.2C960 427.7 960 450.3 960 472.8C960 495.3 960 517.7 960 528.8L960 540Z" fill="#d24883"></path><path d="M703 540L707.2 528.8C711.3 517.7 719.7 495.3 728.7 472.8C737.7 450.3 747.3 427.7 743 405.2C738.7 382.7 720.3 360.3 715 337.8C709.7 315.3 717.3 292.7 721.2 270.2C725 247.7 725 225.3 726.7 202.8C728.3 180.3 731.7 157.7 742.2 135.2C752.7 112.7 770.3 90.3 777.8 67.8C785.3 45.3 782.7 22.7 781.3 11.3L780 0L960 0L960 11.3C960 22.7 960 45.3 960 67.8C960 90.3 960 112.7 960 135.2C960 157.7 960 180.3 960 202.8C960 225.3 960 247.7 960 270.2C960 292.7 960 315.3 960 337.8C960 360.3 960 382.7 960 405.2C960 427.7 960 450.3 960 472.8C960 495.3 960 517.7 960 528.8L960 540Z" fill="#b23e8f"></path><path d="M796 540L789.8 528.8C783.7 517.7 771.3 495.3 777 472.8C782.7 450.3 806.3 427.7 806.8 405.2C807.3 382.7 784.7 360.3 784.7 337.8C784.7 315.3 807.3 292.7 822.2 270.2C837 247.7 844 225.3 837.5 202.8C831 180.3 811 157.7 794.3 135.2C777.7 112.7 764.3 90.3 757 67.8C749.7 45.3 748.3 22.7 747.7 11.3L747 0L960 0L960 11.3C960 22.7 960 45.3 960 67.8C960 90.3 960 112.7 960 135.2C960 157.7 960 180.3 960 202.8C960 225.3 960 247.7 960 270.2C960 292.7 960 315.3 960 337.8C960 360.3 960 382.7 960 405.2C960 427.7 960 450.3 960 472.8C960 495.3 960 517.7 960 528.8L960 540Z" fill="#893c97"></path><path d="M906 540L906.8 528.8C907.7 517.7 909.3 495.3 903.7 472.8C898 450.3 885 427.7 882.2 405.2C879.3 382.7 886.7 360.3 889.7 337.8C892.7 315.3 891.3 292.7 888.7 270.2C886 247.7 882 225.3 872 202.8C862 180.3 846 157.7 847.8 135.2C849.7 112.7 869.3 90.3 879.7 67.8C890 45.3 891 22.7 891.5 11.3L892 0L960 0L960 11.3C960 22.7 960 45.3 960 67.8C960 90.3 960 112.7 960 135.2C960 157.7 960 180.3 960 202.8C960 225.3 960 247.7 960 270.2C960 292.7 960 315.3 960 337.8C960 360.3 960 382.7 960 405.2C960 427.7 960 450.3 960 472.8C960 495.3 960 517.7 960 528.8L960 540Z" fill="#553c9a"></path></svg>