<svg id="visual" viewBox="0 0 960 540" width="960" height="540" xmlns="http://www.w3.org/2000/svg" xmlns:xlink="http://www.w3.org/1999/xlink" version="1.1"><rect x="0" y="0" width="960" height="540" fill="#faf5ff"></rect><path d="M600 540L583.5 525C567 510 534 480 504.5 450C475 420 449 390 461.5 360C474 330 525 300 539.5 270C554 240 532 210 517.8 180C503.7 150 497.3 120 506 90C514.7 60 538.3 30 550.2 15L562 0L960 0L960 15C960 30 960 60 960 90C960 120 960 150 960 180C960 210 960 240 960 270C960 300 960 330 960 360C960 390 960 420 960 450C960 480 960 510 960 525L960 540Z" fill="#fa7268"></path><path d="M567 540L584 525C601 510 635 480 628.2 450C621.3 420 573.7 390 550.7 360C527.7 330 529.3 300 553.7 270C578 240 625 210 639.7 180C654.3 150 636.7 120 608.8 90C581 60 543 30 524 15L505 0L960 0L960 15C960 30 960 60 960 90C960 120 960 150 960 180C960 210 960 240 960 270C960 300 960 330 960 360C960 390 960 420 960 450C960 480 960 510 960 525L960 540Z" fill="#ea5a75"></path><path d="M681 540L663.2 525C645.3 510 609.7 480 601.2 450C592.7 420 611.3 390 633.5 360C655.7 330 681.3 300 674.3 270C667.3 240 627.7 210 618.3 180C609 150 630 120 647.8 90C665.7 60 680.3 30 687.7 15L695 0L960 0L960 15C960 30 960 60 960 90C960 120 960 150 960 180C960 210 960 240 960 270C960 300 960 330 960 360C960 390 960 420 960 450C960 480 960 510 960 525L960 540Z" fill="#d24883"></path><path d="M763 540L762 525C761 510 759 480 746.3 450C733.7 420 710.3 390 695.2 360C680 330 673 300 686.5 270C700 240 734 210 737.7 180C741.3 150 714.7 120 703 90C691.3 60 694.7 30 696.3 15L698 0L960 0L960 15C960 30 960 60 960 90C960 120 960 150 960 180C960 210 960 240 960 270C960 300 960 330 960 360C960 390 960 420 960 450C960 480 960 510 960 525L960 540Z" fill="#b23e8f"></path><path d="M755 540L767.8 525C780.7 510 806.3 480 804.7 450C803 420 774 390 769.8 360C765.7 330 786.3 300 802.7 270C819 240 831 210 827.8 180C824.7 150 806.3 120 800.8 90C795.3 60 802.7 30 806.3 15L810 0L960 0L960 15C960 30 960 60 960 90C960 120 960 150 960 180C960 210 960 240 960 270C960 300 960 330 960 360C960 390 960 420 960 450C960 480 960 510 960 525L960 540Z" fill="#893c97"></path><path d="M899 540L887.3 525C875.7 510 852.3 480 847 450C841.7 420 854.3 390 852.5 360C850.7 330 834.3 300 828.2 270C822 240 826 210 837.3 180C848.7 150 867.3 120 871.7 90C876 60 866 30 861 15L856 0L960 0L960 15C960 30 960 60 960 90C960 120 960 150 960 180C960 210 960 240 960 270C960 300 960 330 960 360C960 390 960 420 960 450C960 480 960 510 960 525L960 540Z" fill="#553c9a"></path></svg>